<svg xmlns="http://www.w3.org/2000/svg" xmlns:xlink="http://www.w3.org/1999/xlink" contentStyleType="text/css" data-diagram-type="CLASS" height="732px" preserveAspectRatio="none" style="width:760px;height:732px;background:#FFFFFF;" version="1.1" viewBox="0 0 760 732" width="760px" zoomAndPan="magnify"><?plantuml 1.2026.6?><defs/><g><g class="title" data-source-line="1"><text fill="#000000" font-family="Arial" font-size="14" font-weight="700" lengthAdjust="spacing" textLength="150.7374" x="301.5123" y="24.9659">Model Data Inti NALA</text></g><!--class User--><g class="entity" data-qualified-name="User" data-source-line="19" id="ent0001"><rect fill="#FFFFFF" height="103.9276" rx="2.5" ry="2.5" style="stroke:#CBD5E1;stroke-width:0.5;" width="136.2771" x="253.12" y="47.0679"/><rect fill="#FFF7ED" height="28" rx="2.5" ry="2.5" style="stroke:#FFF7ED;stroke-width:0.5;" width="136.2771" x="253.12" y="47.0679"/><rect fill="#FFF7ED" height="2.5" style="stroke:#FFF7ED;stroke-width:0.5;" width="136.2771" x="253.12" y="72.5679"/><rect fill="none" height="103.9276" rx="2.5" ry="2.5" style="stroke:#CBD5E1;stroke-width:0.5;" width="136.2771" x="253.12" y="47.0679"/><ellipse cx="305.4801" cy="61.0679" fill="#ADD1B2" rx="9" ry="9" style="stroke:#181818;stroke-width:1;"/><path d="M307.777,65.0679 L303.0426,65.0679 L303.0426,56.8648 L307.777,56.8648 L307.777,58.0835 L304.3864,58.0835 L304.3864,60.1929 L307.5895,60.1929 L307.5895,61.396 L304.3864,61.396 L304.3864,63.8492 L307.777,63.8492 L307.777,65.0679 Z " fill="#000000"/><text fill="#111827" font-family="Arial" font-size="11" lengthAdjust="spacing" textLength="24.0568" x="322.9801" y="65.3359">User</text><line style="stroke:#CBD5E1;stroke-width:0.5;" x1="254.12" x2="388.3971" y1="75.0679" y2="75.0679"/><g data-visibility-modifier="IE_MANDATORY"><ellipse cx="264.12" cy="88.0589" fill="#000000" rx="3" ry="3" style="stroke:#000000;stroke-width:1;"/></g><text fill="#000000" font-family="Arial" font-size="11" lengthAdjust="spacing" textLength="46.1117" x="271.12" y="90.8268">id : UUID</text><line style="stroke:#CBD5E1;stroke-width:1;" x1="254.12" x2="388.3971" y1="98.0498" y2="98.0498"/><text fill="#000000" font-family="Arial" font-size="11" lengthAdjust="spacing" textLength="67.9575" x="259.12" y="113.8087">email : String</text><text fill="#000000" font-family="Arial" font-size="11" lengthAdjust="spacing" textLength="69.0795" x="259.12" y="128.7906">name : String</text><text fill="#000000" font-family="Arial" font-size="11" lengthAdjust="spacing" textLength="124.2771" x="259.12" y="143.7725">consentVersion : String?</text></g><!--class Wallet--><g class="entity" data-qualified-name="Wallet" data-source-line="27" id="ent0002"><rect fill="#FFFFFF" height="118.9094" rx="2.5" ry="2.5" style="stroke:#CBD5E1;stroke-width:0.5;" width="100.1644" x="73.18" y="218.4879"/><rect fill="#FFF7ED" height="28" rx="2.5" ry="2.5" style="stroke:#FFF7ED;stroke-width:0.5;" width="100.1644" x="73.18" y="218.4879"/><rect fill="#FFF7ED" height="2.5" style="stroke:#FFF7ED;stroke-width:0.5;" width="100.1644" x="73.18" y="243.9879"/><rect fill="none" height="118.9094" rx="2.5" ry="2.5" style="stroke:#CBD5E1;stroke-width:0.5;" width="100.1644" x="73.18" y="218.4879"/><ellipse cx="104.1407" cy="232.4879" fill="#ADD1B2" rx="9" ry="9" style="stroke:#181818;stroke-width:1;"/><path d="M106.4375,236.4879 L101.7032,236.4879 L101.7032,228.2848 L106.4375,228.2848 L106.4375,229.5035 L103.0469,229.5035 L103.0469,231.6129 L106.25,231.6129 L106.25,232.816 L103.0469,232.816 L103.0469,235.2692 L106.4375,235.2692 L106.4375,236.4879 Z " fill="#000000"/><text fill="#111827" font-family="Arial" font-size="11" lengthAdjust="spacing" textLength="32.2518" x="120.1319" y="236.7559">Wallet</text><line style="stroke:#CBD5E1;stroke-width:0.5;" x1="74.18" x2="172.3444" y1="246.4879" y2="246.4879"/><g data-visibility-modifier="IE_MANDATORY"><ellipse cx="84.18" cy="259.4789" fill="#000000" rx="3" ry="3" style="stroke:#000000;stroke-width:1;"/></g><text fill="#000000" font-family="Arial" font-size="11" lengthAdjust="spacing" textLength="46.1117" x="91.18" y="262.2468">id : UUID</text><line style="stroke:#CBD5E1;stroke-width:1;" x1="74.18" x2="172.3444" y1="269.4698" y2="269.4698"/><text fill="#000000" font-family="Arial" font-size="11" lengthAdjust="spacing" textLength="69.8165" x="79.18" y="285.2287">userId : UUID</text><text fill="#000000" font-family="Arial" font-size="11" lengthAdjust="spacing" textLength="69.0795" x="79.18" y="300.2106">name : String</text><text fill="#000000" font-family="Arial" font-size="11" lengthAdjust="spacing" textLength="88.1644" x="79.18" y="315.1925">type : WalletType</text><text fill="#000000" font-family="Arial" font-size="11" lengthAdjust="spacing" textLength="80.1454" x="79.18" y="330.1744">balance : BigInt</text></g><!--class Transaction--><g class="entity" data-qualified-name="Transaction" data-source-line="36" id="ent0003"><rect fill="#FFFFFF" height="148.8732" rx="2.5" ry="2.5" style="stroke:#CBD5E1;stroke-width:0.5;" width="128.5222" x="7" y="404.8879"/><rect fill="#FFF7ED" height="28" rx="2.5" ry="2.5" style="stroke:#FFF7ED;stroke-width:0.5;" width="128.5222" x="7" y="404.8879"/><rect fill="#FFF7ED" height="2.5" style="stroke:#FFF7ED;stroke-width:0.5;" width="128.5222" x="7" y="430.3879"/><rect fill="none" height="148.8732" rx="2.5" ry="2.5" style="stroke:#CBD5E1;stroke-width:0.5;" width="128.5222" x="7" y="404.8879"/><ellipse cx="37.9607" cy="418.8879" fill="#ADD1B2" rx="9" ry="9" style="stroke:#181818;stroke-width:1;"/><path d="M40.2575,422.8879 L35.5232,422.8879 L35.5232,414.6848 L40.2575,414.6848 L40.2575,415.9035 L36.8669,415.9035 L36.8669,418.0129 L40.07,418.0129 L40.07,419.216 L36.8669,419.216 L36.8669,421.6692 L40.2575,421.6692 L40.2575,422.8879 Z " fill="#000000"/><text fill="#111827" font-family="Arial" font-size="11" lengthAdjust="spacing" textLength="60.6096" x="53.9519" y="423.1559">Transaction</text><line style="stroke:#CBD5E1;stroke-width:0.5;" x1="8" x2="134.5222" y1="432.8879" y2="432.8879"/><g data-visibility-modifier="IE_MANDATORY"><ellipse cx="18" cy="445.8789" fill="#000000" rx="3" ry="3" style="stroke:#000000;stroke-width:1;"/></g><text fill="#000000" font-family="Arial" font-size="11" lengthAdjust="spacing" textLength="46.1117" x="25" y="448.6468">id : UUID</text><line style="stroke:#CBD5E1;stroke-width:1;" x1="8" x2="134.5222" y1="455.8698" y2="455.8698"/><text fill="#000000" font-family="Arial" font-size="11" lengthAdjust="spacing" textLength="69.8165" x="13" y="471.6287">userId : UUID</text><text fill="#000000" font-family="Arial" font-size="11" lengthAdjust="spacing" textLength="77.6705" x="13" y="486.6106">walletId : UUID</text><text fill="#000000" font-family="Arial" font-size="11" lengthAdjust="spacing" textLength="116.5222" x="13" y="501.5925">type : TransactionType</text><text fill="#000000" font-family="Arial" font-size="11" lengthAdjust="spacing" textLength="80.5964" x="13" y="516.5744">amount : BigInt</text><text fill="#000000" font-family="Arial" font-size="11" lengthAdjust="spacing" textLength="84.8204" x="13" y="531.5563">category : String</text><text fill="#000000" font-family="Arial" font-size="11" lengthAdjust="spacing" textLength="115.5542" x="13" y="546.5382">occurredAt : DateTime</text></g><!--class Budget--><g class="entity" data-qualified-name="Budget" data-source-line="47" id="ent0004"><rect fill="#FFFFFF" height="133.8913" rx="2.5" ry="2.5" style="stroke:#CBD5E1;stroke-width:0.5;" width="116.2243" x="208.15" y="210.9979"/><rect fill="#FFF7ED" height="28" rx="2.5" ry="2.5" style="stroke:#FFF7ED;stroke-width:0.5;" width="116.2243" x="208.15" y="210.9979"/><rect fill="#FFF7ED" height="2.5" style="stroke:#FFF7ED;stroke-width:0.5;" width="116.2243" x="208.15" y="236.4979"/><rect fill="none" height="133.8913" rx="2.5" ry="2.5" style="stroke:#CBD5E1;stroke-width:0.5;" width="116.2243" x="208.15" y="210.9979"/><ellipse cx="243.9072" cy="224.9979" fill="#ADD1B2" rx="9" ry="9" style="stroke:#181818;stroke-width:1;"/><path d="M246.2041,228.9979 L241.4697,228.9979 L241.4697,220.7948 L246.2041,220.7948 L246.2041,222.0135 L242.8134,222.0135 L242.8134,224.1229 L246.0166,224.1229 L246.0166,225.326 L242.8134,225.326 L242.8134,227.7792 L246.2041,227.7792 L246.2041,228.9979 Z " fill="#000000"/><text fill="#111827" font-family="Arial" font-size="11" lengthAdjust="spacing" textLength="37.6527" x="260.9644" y="229.2659">Budget</text><line style="stroke:#CBD5E1;stroke-width:0.5;" x1="209.15" x2="323.3743" y1="238.9979" y2="238.9979"/><g data-visibility-modifier="IE_MANDATORY"><ellipse cx="219.15" cy="251.9889" fill="#000000" rx="3" ry="3" style="stroke:#000000;stroke-width:1;"/></g><text fill="#000000" font-family="Arial" font-size="11" lengthAdjust="spacing" textLength="46.1117" x="226.15" y="254.7568">id : UUID</text><line style="stroke:#CBD5E1;stroke-width:1;" x1="209.15" x2="323.3743" y1="261.9798" y2="261.9798"/><text fill="#000000" font-family="Arial" font-size="11" lengthAdjust="spacing" textLength="69.8165" x="214.15" y="277.7387">userId : UUID</text><text fill="#000000" font-family="Arial" font-size="11" lengthAdjust="spacing" textLength="84.8204" x="214.15" y="292.7206">category : String</text><text fill="#000000" font-family="Arial" font-size="11" lengthAdjust="spacing" textLength="57.6726" x="214.15" y="307.7025">month : Int</text><text fill="#000000" font-family="Arial" font-size="11" lengthAdjust="spacing" textLength="45.6937" x="214.15" y="322.6844">year : Int</text><text fill="#000000" font-family="Arial" font-size="11" lengthAdjust="spacing" textLength="104.2243" x="214.15" y="337.6663">limitAmount : BigInt</text></g><!--class RecurringBill--><g class="entity" data-qualified-name="RecurringBill" data-source-line="57" id="ent0005"><rect fill="#FFFFFF" height="118.9094" rx="2.5" ry="2.5" style="stroke:#CBD5E1;stroke-width:0.5;" width="97.7774" x="170.37" y="419.8679"/><rect fill="#FFF7ED" height="28" rx="2.5" ry="2.5" style="stroke:#FFF7ED;stroke-width:0.5;" width="97.7774" x="170.37" y="419.8679"/><rect fill="#FFF7ED" height="2.5" style="stroke:#FFF7ED;stroke-width:0.5;" width="97.7774" x="170.37" y="445.3679"/><rect fill="none" height="118.9094" rx="2.5" ry="2.5" style="stroke:#CBD5E1;stroke-width:0.5;" width="97.7774" x="170.37" y="419.8679"/><ellipse cx="184.9463" cy="433.8679" fill="#ADD1B2" rx="9" ry="9" style="stroke:#181818;stroke-width:1;"/><path d="M187.2432,437.8679 L182.5088,437.8679 L182.5088,429.6648 L187.2432,429.6648 L187.2432,430.8835 L183.8525,430.8835 L183.8525,432.9929 L187.0557,432.9929 L187.0557,434.196 L183.8525,434.196 L183.8525,436.6492 L187.2432,436.6492 L187.2432,437.8679 Z " fill="#000000"/><text fill="#111827" font-family="Arial" font-size="11" lengthAdjust="spacing" textLength="66.2745" x="197.2966" y="438.1359">RecurringBill</text><line style="stroke:#CBD5E1;stroke-width:0.5;" x1="171.37" x2="267.1474" y1="447.8679" y2="447.8679"/><g data-visibility-modifier="IE_MANDATORY"><ellipse cx="181.37" cy="460.8589" fill="#000000" rx="3" ry="3" style="stroke:#000000;stroke-width:1;"/></g><text fill="#000000" font-family="Arial" font-size="11" lengthAdjust="spacing" textLength="46.1117" x="188.37" y="463.6268">id : UUID</text><line style="stroke:#CBD5E1;stroke-width:1;" x1="171.37" x2="267.1474" y1="470.8498" y2="470.8498"/><text fill="#000000" font-family="Arial" font-size="11" lengthAdjust="spacing" textLength="69.8165" x="176.37" y="486.6087">userId : UUID</text><text fill="#000000" font-family="Arial" font-size="11" lengthAdjust="spacing" textLength="77.6705" x="176.37" y="501.5906">walletId : UUID</text><text fill="#000000" font-family="Arial" font-size="11" lengthAdjust="spacing" textLength="80.5964" x="176.37" y="516.5725">amount : BigInt</text><text fill="#000000" font-family="Arial" font-size="11" lengthAdjust="spacing" textLength="85.7774" x="176.37" y="531.5544">schedule : String</text></g><!--class RecurringExecution--><g class="entity" data-qualified-name="RecurringExecution" data-source-line="66" id="ent0006"><rect fill="#FFFFFF" height="103.9276" rx="2.5" ry="2.5" style="stroke:#CBD5E1;stroke-width:0.5;" width="129.0892" x="80.72" y="613.7579"/><rect fill="#FFF7ED" height="28" rx="2.5" ry="2.5" style="stroke:#FFF7ED;stroke-width:0.5;" width="129.0892" x="80.72" y="613.7579"/><rect fill="#FFF7ED" height="2.5" style="stroke:#FFF7ED;stroke-width:0.5;" width="129.0892" x="80.72" y="639.2579"/><rect fill="none" height="103.9276" rx="2.5" ry="2.5" style="stroke:#CBD5E1;stroke-width:0.5;" width="129.0892" x="80.72" y="613.7579"/><ellipse cx="93.72" cy="627.7579" fill="#ADD1B2" rx="9" ry="9" style="stroke:#181818;stroke-width:1;"/><path d="M96.0169,631.7579 L91.2825,631.7579 L91.2825,623.5548 L96.0169,623.5548 L96.0169,624.7735 L92.6263,624.7735 L92.6263,626.8829 L95.8294,626.8829 L95.8294,628.086 L92.6263,628.086 L92.6263,630.5392 L96.0169,630.5392 L96.0169,631.7579 Z " fill="#000000"/><text fill="#111827" font-family="Arial" font-size="11" lengthAdjust="spacing" textLength="101.0892" x="105.72" y="632.0259">RecurringExecution</text><line style="stroke:#CBD5E1;stroke-width:0.5;" x1="81.72" x2="208.8092" y1="641.7579" y2="641.7579"/><g data-visibility-modifier="IE_MANDATORY"><ellipse cx="91.72" cy="654.7489" fill="#000000" rx="3" ry="3" style="stroke:#000000;stroke-width:1;"/></g><text fill="#000000" font-family="Arial" font-size="11" lengthAdjust="spacing" textLength="46.1117" x="98.72" y="657.5168">id : UUID</text><line style="stroke:#CBD5E1;stroke-width:1;" x1="81.72" x2="208.8092" y1="664.7398" y2="664.7398"/><text fill="#000000" font-family="Arial" font-size="11" lengthAdjust="spacing" textLength="110.9782" x="86.72" y="680.4987">recurringBillId : UUID</text><text fill="#000000" font-family="Arial" font-size="11" lengthAdjust="spacing" textLength="105.4673" x="86.72" y="695.4806">transactionId : UUID</text><text fill="#000000" font-family="Arial" font-size="11" lengthAdjust="spacing" textLength="92.0143" x="86.72" y="710.4625">periodKey : String</text></g><!--class HabitScoreSnapshot--><g class="entity" data-qualified-name="HabitScoreSnapshot" data-source-line="74" id="ent0007"><rect fill="#FFFFFF" height="118.9094" rx="2.5" ry="2.5" style="stroke:#CBD5E1;stroke-width:0.5;" width="133.0823" x="430.72" y="218.4879"/><rect fill="#FFF7ED" height="28" rx="2.5" ry="2.5" style="stroke:#FFF7ED;stroke-width:0.5;" width="133.0823" x="430.72" y="218.4879"/><rect fill="#FFF7ED" height="2.5" style="stroke:#FFF7ED;stroke-width:0.5;" width="133.0823" x="430.72" y="243.9879"/><rect fill="none" height="118.9094" rx="2.5" ry="2.5" style="stroke:#CBD5E1;stroke-width:0.5;" width="133.0823" x="430.72" y="218.4879"/><ellipse cx="443.72" cy="232.4879" fill="#ADD1B2" rx="9" ry="9" style="stroke:#181818;stroke-width:1;"/><path d="M446.0169,236.4879 L441.2825,236.4879 L441.2825,228.2848 L446.0169,228.2848 L446.0169,229.5035 L442.6263,229.5035 L442.6263,231.6129 L445.8294,231.6129 L445.8294,232.816 L442.6263,232.816 L442.6263,235.2692 L446.0169,235.2692 L446.0169,236.4879 Z " fill="#000000"/><text fill="#111827" font-family="Arial" font-size="11" lengthAdjust="spacing" textLength="105.0823" x="455.72" y="236.7559">HabitScoreSnapshot</text><line style="stroke:#CBD5E1;stroke-width:0.5;" x1="431.72" x2="562.8023" y1="246.4879" y2="246.4879"/><g data-visibility-modifier="IE_MANDATORY"><ellipse cx="441.72" cy="259.4789" fill="#000000" rx="3" ry="3" style="stroke:#000000;stroke-width:1;"/></g><text fill="#000000" font-family="Arial" font-size="11" lengthAdjust="spacing" textLength="46.1117" x="448.72" y="262.2468">id : UUID</text><line style="stroke:#CBD5E1;stroke-width:1;" x1="431.72" x2="562.8023" y1="269.4698" y2="269.4698"/><text fill="#000000" font-family="Arial" font-size="11" lengthAdjust="spacing" textLength="69.8165" x="436.72" y="285.2287">userId : UUID</text><text fill="#000000" font-family="Arial" font-size="11" lengthAdjust="spacing" textLength="92.0143" x="436.72" y="300.2106">periodKey : String</text><text fill="#000000" font-family="Arial" font-size="11" lengthAdjust="spacing" textLength="55.8906" x="436.72" y="315.1925">score : Int?</text><text fill="#000000" font-family="Arial" font-size="11" lengthAdjust="spacing" textLength="70.3335" x="436.72" y="330.1744">factors : JSON</text></g><!--class Session--><g class="entity" data-qualified-name="Session" data-source-line="83" id="ent0008"><rect fill="#FFFFFF" height="103.9276" rx="2.5" ry="2.5" style="stroke:#CBD5E1;stroke-width:0.5;" width="147.002" x="598.76" y="225.9779"/><rect fill="#FFF7ED" height="28" rx="2.5" ry="2.5" style="stroke:#FFF7ED;stroke-width:0.5;" width="147.002" x="598.76" y="225.9779"/><rect fill="#FFF7ED" height="2.5" style="stroke:#FFF7ED;stroke-width:0.5;" width="147.002" x="598.76" y="251.4779"/><rect fill="none" height="103.9276" rx="2.5" ry="2.5" style="stroke:#CBD5E1;stroke-width:0.5;" width="147.002" x="598.76" y="225.9779"/><ellipse cx="648.9751" cy="239.9779" fill="#ADD1B2" rx="9" ry="9" style="stroke:#181818;stroke-width:1;"/><path d="M651.272,243.9779 L646.5376,243.9779 L646.5376,235.7748 L651.272,235.7748 L651.272,236.9935 L647.8814,236.9935 L647.8814,239.1029 L651.0845,239.1029 L651.0845,240.306 L647.8814,240.306 L647.8814,242.7592 L651.272,242.7592 L651.272,243.9779 Z " fill="#000000"/><text fill="#111827" font-family="Arial" font-size="11" lengthAdjust="spacing" textLength="39.0717" x="666.4751" y="244.2459">Session</text><line style="stroke:#CBD5E1;stroke-width:0.5;" x1="599.76" x2="744.762" y1="253.9779" y2="253.9779"/><g data-visibility-modifier="IE_MANDATORY"><ellipse cx="609.76" cy="266.9689" fill="#000000" rx="3" ry="3" style="stroke:#000000;stroke-width:1;"/></g><text fill="#000000" font-family="Arial" font-size="11" lengthAdjust="spacing" textLength="46.1117" x="616.76" y="269.7368">id : UUID</text><line style="stroke:#CBD5E1;stroke-width:1;" x1="599.76" x2="744.762" y1="276.9598" y2="276.9598"/><text fill="#000000" font-family="Arial" font-size="11" lengthAdjust="spacing" textLength="69.8165" x="604.76" y="292.7187">userId : UUID</text><text fill="#000000" font-family="Arial" font-size="11" lengthAdjust="spacing" textLength="135.002" x="604.76" y="307.7006">refreshTokenHash : String</text><text fill="#000000" font-family="Arial" font-size="11" lengthAdjust="spacing" textLength="107.1282" x="604.76" y="322.6825">expiresAt : DateTime</text></g><!--link User to Wallet--><g class="link" data-entity-1="ent0001" data-entity-2="ent0002" data-link-type="crowfoot" data-source-line="91" id="lnk9"><path codeLine="91" d="M244.84,81.6879 C187.61,81.6879 123.26,81.6879 123.26,81.6879 C123.26,81.6879 123.26,142.2779 123.26,199.9879" fill="none" id="User-Wallet" style="stroke:#64748B;stroke-width:1;"/><line style="stroke:#64748B;stroke-width:1;" x1="248.84" x2="248.84" y1="77.6879" y2="85.6879"/><line style="stroke:#64748B;stroke-width:1;" x1="245.84" x2="245.84" y1="77.6879" y2="85.6879"/><line style="stroke:#64748B;stroke-width:1;" x1="244.84" x2="252.84" y1="81.6879" y2="81.6879"/><line style="stroke:#64748B;stroke-width:1;" x1="123.26" x2="129.26" y1="209.9879" y2="217.9879"/><line style="stroke:#64748B;stroke-width:1;" x1="123.26" x2="117.26" y1="209.9879" y2="217.9879"/><line style="stroke:#64748B;stroke-width:1;" x1="123.26" x2="123.26" y1="209.9879" y2="217.9879"/><ellipse cx="123.26" cy="203.9879" fill="none" rx="4" ry="4" style="stroke:#64748B;stroke-width:1;"/></g><!--link User to Transaction--><g class="link" data-entity-1="ent0001" data-entity-2="ent0003" data-link-type="crowfoot" data-source-line="92" id="lnk10"><path codeLine="92" d="M346.05,159.1779 C346.05,248.3679 346.05,412.6879 346.05,412.6879 C346.05,412.6879 234.91,412.6879 153.69,412.6879" fill="none" id="User-Transaction" style="stroke:#64748B;stroke-width:1;"/><line style="stroke:#64748B;stroke-width:1;" x1="342.05" x2="350.05" y1="155.1779" y2="155.1779"/><line style="stroke:#64748B;stroke-width:1;" x1="342.05" x2="350.05" y1="158.1779" y2="158.1779"/><line style="stroke:#64748B;stroke-width:1;" x1="346.05" x2="346.05" y1="159.1779" y2="151.1779"/><line style="stroke:#64748B;stroke-width:1;" x1="143.69" x2="135.69" y1="412.6879" y2="418.6879"/><line style="stroke:#64748B;stroke-width:1;" x1="143.69" x2="135.69" y1="412.6879" y2="406.6879"/><line style="stroke:#64748B;stroke-width:1;" x1="143.69" x2="135.69" y1="412.6879" y2="412.6879"/><ellipse cx="149.69" cy="412.6879" fill="none" rx="4" ry="4" style="stroke:#64748B;stroke-width:1;"/></g><!--link Wallet to Transaction--><g class="link" data-entity-1="ent0002" data-entity-2="ent0003" data-link-type="crowfoot" data-source-line="93" id="lnk11"><path codeLine="93" d="M104.35,345.8179 C104.35,366.8079 104.35,364.6379 104.35,386.6779" fill="none" id="Wallet-Transaction" style="stroke:#64748B;stroke-width:1;"/><line style="stroke:#64748B;stroke-width:1;" x1="100.35" x2="108.35" y1="341.8179" y2="341.8179"/><line style="stroke:#64748B;stroke-width:1;" x1="100.35" x2="108.35" y1="344.8179" y2="344.8179"/><line style="stroke:#64748B;stroke-width:1;" x1="104.35" x2="104.35" y1="345.8179" y2="337.8179"/><line style="stroke:#64748B;stroke-width:1;" x1="104.35" x2="110.35" y1="396.6779" y2="404.6779"/><line style="stroke:#64748B;stroke-width:1;" x1="104.35" x2="98.35" y1="396.6779" y2="404.6779"/><line style="stroke:#64748B;stroke-width:1;" x1="104.35" x2="104.35" y1="396.6779" y2="404.6779"/><ellipse cx="104.35" cy="390.6779" fill="none" rx="4" ry="4" style="stroke:#64748B;stroke-width:1;"/></g><!--link User to Budget--><g class="link" data-entity-1="ent0001" data-entity-2="ent0004" data-link-type="crowfoot" data-source-line="94" id="lnk12"><path codeLine="94" d="M288.75,159.2579 C288.75,177.8279 288.75,172.9979 288.75,192.6379" fill="none" id="User-Budget" style="stroke:#64748B;stroke-width:1;"/><line style="stroke:#64748B;stroke-width:1;" x1="284.75" x2="292.75" y1="155.2579" y2="155.2579"/><line style="stroke:#64748B;stroke-width:1;" x1="284.75" x2="292.75" y1="158.2579" y2="158.2579"/><line style="stroke:#64748B;stroke-width:1;" x1="288.75" x2="288.75" y1="159.2579" y2="151.2579"/><line style="stroke:#64748B;stroke-width:1;" x1="288.75" x2="294.75" y1="202.6379" y2="210.6379"/><line style="stroke:#64748B;stroke-width:1;" x1="288.75" x2="282.75" y1="202.6379" y2="210.6379"/><line style="stroke:#64748B;stroke-width:1;" x1="288.75" x2="288.75" y1="202.6379" y2="210.6379"/><ellipse cx="288.75" cy="196.6379" fill="none" rx="4" ry="4" style="stroke:#64748B;stroke-width:1;"/></g><!--link User to RecurringBill--><g class="link" data-entity-1="ent0001" data-entity-2="ent0005" data-link-type="crowfoot" data-source-line="95" id="lnk13"><path codeLine="95" d="M244.95,116.6879 C213.37,116.6879 190.75,116.6879 190.75,116.6879 C190.75,116.6879 190.75,298.4479 190.75,401.4379" fill="none" id="User-RecurringBill" style="stroke:#64748B;stroke-width:1;"/><line style="stroke:#64748B;stroke-width:1;" x1="248.95" x2="248.95" y1="112.6879" y2="120.6879"/><line style="stroke:#64748B;stroke-width:1;" x1="245.95" x2="245.95" y1="112.6879" y2="120.6879"/><line style="stroke:#64748B;stroke-width:1;" x1="244.95" x2="252.95" y1="116.6879" y2="116.6879"/><line style="stroke:#64748B;stroke-width:1;" x1="190.75" x2="196.75" y1="411.4379" y2="419.4379"/><line style="stroke:#64748B;stroke-width:1;" x1="190.75" x2="184.75" y1="411.4379" y2="419.4379"/><line style="stroke:#64748B;stroke-width:1;" x1="190.75" x2="190.75" y1="411.4379" y2="419.4379"/><ellipse cx="190.75" cy="405.4379" fill="none" rx="4" ry="4" style="stroke:#64748B;stroke-width:1;"/></g><!--link Wallet to RecurringBill--><g class="link" data-entity-1="ent0002" data-entity-2="ent0005" data-link-type="crowfoot" data-source-line="96" id="lnk14"><path codeLine="96" d="M152.95,345.6579 C152.95,405.1479 152.95,479.6879 152.95,479.6879 C152.95,479.6879 142.26,479.6879 152.02,479.6879" fill="none" id="Wallet-RecurringBill" style="stroke:#64748B;stroke-width:1;"/><line style="stroke:#64748B;stroke-width:1;" x1="148.95" x2="156.95" y1="341.6579" y2="341.6579"/><line style="stroke:#64748B;stroke-width:1;" x1="148.95" x2="156.95" y1="344.6579" y2="344.6579"/><line style="stroke:#64748B;stroke-width:1;" x1="152.95" x2="152.95" y1="345.6579" y2="337.6579"/><line style="stroke:#64748B;stroke-width:1;" x1="162.02" x2="170.02" y1="479.6879" y2="473.6879"/><line style="stroke:#64748B;stroke-width:1;" x1="162.02" x2="170.02" y1="479.6879" y2="485.6879"/><line style="stroke:#64748B;stroke-width:1;" x1="162.02" x2="170.02" y1="479.6879" y2="479.6879"/><ellipse cx="156.02" cy="479.6879" fill="none" rx="4" ry="4" style="stroke:#64748B;stroke-width:1;"/></g><!--link RecurringBill to RecurringExecution--><g class="link" data-entity-1="ent0005" data-entity-2="ent0006" data-link-type="crowfoot" data-source-line="97" id="lnk15"><path codeLine="97" d="M190.09,547.0679 C190.09,571.0279 190.09,572.3879 190.09,595.5379" fill="none" id="RecurringBill-RecurringExecution" style="stroke:#64748B;stroke-width:1;"/><line style="stroke:#64748B;stroke-width:1;" x1="186.09" x2="194.09" y1="543.0679" y2="543.0679"/><line style="stroke:#64748B;stroke-width:1;" x1="186.09" x2="194.09" y1="546.0679" y2="546.0679"/><line style="stroke:#64748B;stroke-width:1;" x1="190.09" x2="190.09" y1="547.0679" y2="539.0679"/><line style="stroke:#64748B;stroke-width:1;" x1="190.09" x2="196.09" y1="605.5379" y2="613.5379"/><line style="stroke:#64748B;stroke-width:1;" x1="190.09" x2="184.09" y1="605.5379" y2="613.5379"/><line style="stroke:#64748B;stroke-width:1;" x1="190.09" x2="190.09" y1="605.5379" y2="613.5379"/><ellipse cx="190.09" cy="599.5379" fill="none" rx="4" ry="4" style="stroke:#64748B;stroke-width:1;"/></g><!--link Transaction to RecurringExecution--><g class="link" data-entity-1="ent0003" data-entity-2="ent0006" data-link-type="association" data-source-line="98" id="lnk16"><path codeLine="98" d="M108.12,562.0679 C108.12,581.9179 108.12,579.9379 108.12,598.3179" fill="none" id="Transaction-RecurringExecution" style="stroke:#64748B;stroke-width:1;"/><line style="stroke:#64748B;stroke-width:1;" x1="104.12" x2="112.12" y1="558.0679" y2="558.0679"/><line style="stroke:#64748B;stroke-width:1;" x1="104.12" x2="112.12" y1="561.0679" y2="561.0679"/><line style="stroke:#64748B;stroke-width:1;" x1="108.12" x2="108.12" y1="562.0679" y2="554.0679"/><line style="stroke:#64748B;stroke-width:1;" x1="108.12" x2="108.12" y1="602.3179" y2="613.3179"/><ellipse cx="108.12" cy="602.3179" fill="none" rx="4" ry="4" style="stroke:#64748B;stroke-width:1;"/><line style="stroke:#64748B;stroke-width:1;" x1="112.12" x2="104.12" y1="609.3179" y2="609.3179"/></g><!--link User to HabitScoreSnapshot--><g class="link" data-entity-1="ent0001" data-entity-2="ent0007" data-link-type="crowfoot" data-source-line="99" id="lnk17"><path codeLine="99" d="M367.72,159.1879 C367.72,211.9179 367.72,277.6879 367.72,277.6879 C367.72,277.6879 380.86,277.6879 412.6,277.6879" fill="none" id="User-HabitScoreSnapshot" style="stroke:#64748B;stroke-width:1;"/><line style="stroke:#64748B;stroke-width:1;" x1="363.72" x2="371.72" y1="155.1879" y2="155.1879"/><line style="stroke:#64748B;stroke-width:1;" x1="363.72" x2="371.72" y1="158.1879" y2="158.1879"/><line style="stroke:#64748B;stroke-width:1;" x1="367.72" x2="367.72" y1="159.1879" y2="151.1879"/><line style="stroke:#64748B;stroke-width:1;" x1="422.6" x2="430.6" y1="277.6879" y2="271.6879"/><line style="stroke:#64748B;stroke-width:1;" x1="422.6" x2="430.6" y1="277.6879" y2="283.6879"/><line style="stroke:#64748B;stroke-width:1;" x1="422.6" x2="430.6" y1="277.6879" y2="277.6879"/><ellipse cx="416.6" cy="277.6879" fill="none" rx="4" ry="4" style="stroke:#64748B;stroke-width:1;"/></g><!--link User to Session--><g class="link" data-entity-1="ent0001" data-entity-2="ent0008" data-link-type="crowfoot" data-source-line="100" id="lnk18"><path codeLine="100" d="M397.77,98.6879 C499.92,98.6879 672.26,98.6879 672.26,98.6879 C672.26,98.6879 672.26,154.6979 672.26,207.6079" fill="none" id="User-Session" style="stroke:#64748B;stroke-width:1;"/><line style="stroke:#64748B;stroke-width:1;" x1="393.77" x2="393.77" y1="102.6879" y2="94.6879"/><line style="stroke:#64748B;stroke-width:1;" x1="396.77" x2="396.77" y1="102.6879" y2="94.6879"/><line style="stroke:#64748B;stroke-width:1;" x1="397.77" x2="389.77" y1="98.6879" y2="98.6879"/><line style="stroke:#64748B;stroke-width:1;" x1="672.26" x2="678.26" y1="217.6079" y2="225.6079"/><line style="stroke:#64748B;stroke-width:1;" x1="672.26" x2="666.26" y1="217.6079" y2="225.6079"/><line style="stroke:#64748B;stroke-width:1;" x1="672.26" x2="672.26" y1="217.6079" y2="225.6079"/><ellipse cx="672.26" cy="211.6079" fill="none" rx="4" ry="4" style="stroke:#64748B;stroke-width:1;"/></g><?plantuml-src dLHDZzem4BtdLrZQMoKEgRPbjPTLie2W7rHgO7isyK0i74yqDcBfql_U2KJWG5hHNX3pndblykOvNdi3uYigC68WlHGJwxMO9b-Io6CbF8e5Ue-bK9eWznfjvDRQLf9aAOosu7SL22HVOD1mXLIurNObbj8u23eBcQzNX1khdj4WYMsXVTXNi9GRuqTe_LIM81BIqdJtC_qJH1m7pOG8jqVUku_t_Vk7D6ZcHZedtY8XqiuP64TIGCtpp-dWmp1cj9Pgi3YE7zxt6Hk3v9ENF7UZqQW_74I_egZG2aG9x8fony9v8C3QBHT5m2RxdPWxeCD4xuHMub7CvvC1LxqU_q0fjM4iyyG-Cc1hEu8wH-kOvmN8yLPEdQTQlk7_8Oq1_oU53QjF0l1IuB3PnuPanWLZ2scapMiurIkEIY0s8scTF4JaLiNjWJf46is0gn6M9Vlipxhy_jB32caNZenvlY42bTGdESumqoK4CwORjRhTa2w5ajDGC72SOGUIJeNHfVR9nPndxUzGpyOigJRc_nswDiBb1QYD2NRN8JfyvNz_sms5uxLMSjv525T06jLds7N9ZkL2-on7WipAoXLui-STjFKRCjFHvoSkbpmDacFWK_Pj6iXcuDm_n8zWIU2A6Qx1ZgKhGabuhVY3vww2TBYo-tslXs_DpMX1GN2ZvlPrTC8dZf5iGQsaND2qU-rCNHuvxJmAx-RXrBxhL3Z3zGPRxSRftm00?></g></svg>