<svg xmlns="http://www.w3.org/2000/svg" width="1200" height="650" viewBox="0 0 1200 650">
<rect width="1200" height="650" fill="white"/>
<style>
.title{font:700 22px Arial,sans-serif;fill:#111827} .label{font:16px Arial,sans-serif;fill:#334155}
.value{font:700 16px Arial,sans-serif;fill:#111827}
</style>
<text x="45" y="45" class="title">Indikator masalah — persentase jawaban 4–5</text><text x="45" y="98" class="label">Tidak mengetahui alokasi uang</text><rect x="280" y="83" width="810" height="18" rx="5" fill="#E2E8F0"/><rect x="280" y="83" width="476.3" height="18" rx="5" fill="#F97316"/><text x="1100" y="98" class="value">58.8%</text><text x="45" y="140" class="label">Lupa mencatat transaksi kecil</text><rect x="280" y="125" width="810" height="18" rx="5" fill="#E2E8F0"/><rect x="280" y="125" width="587.2" height="18" rx="5" fill="#F97316"/><text x="1100" y="140" class="value">72.5%</text><text x="45" y="182" class="label">Dana habis lebih cepat</text><rect x="280" y="167" width="810" height="18" rx="5" fill="#E2E8F0"/><rect x="280" y="167" width="651.2" height="18" rx="5" fill="#F97316"/><text x="1100" y="182" class="value">80.4%</text><text x="45" y="224" class="label">Sulit mengontrol banyak media</text><rect x="280" y="209" width="810" height="18" rx="5" fill="#E2E8F0"/><rect x="280" y="209" width="524.1" height="18" rx="5" fill="#F97316"/><text x="1100" y="224" class="value">64.7%</text><text x="45" y="266" class="label">Membutuhkan peringatan budget</text><rect x="280" y="251" width="810" height="18" rx="5" fill="#E2E8F0"/><rect x="280" y="251" width="651.2" height="18" rx="5" fill="#F97316"/><text x="1100" y="266" class="value">80.4%</text>
<text x="45" y="325" class="title">Enam fitur paling banyak dipilih</text><text x="45" y="378" class="label">Scan struk otomatis</text><rect x="280" y="363" width="810" height="18" rx="5" fill="#E2E8F0"/><rect x="280" y="363" width="507.9" height="18" rx="5" fill="#F97316"/><text x="1100" y="378" class="value">62.7%</text><text x="45" y="420" class="label">Peringatan batas pengeluaran</text><rect x="280" y="405" width="810" height="18" rx="5" fill="#E2E8F0"/><rect x="280" y="405" width="396.9" height="18" rx="5" fill="#F97316"/><text x="1100" y="420" class="value">49.0%</text><text x="45" y="462" class="label">Budget planner</text><rect x="280" y="447" width="810" height="18" rx="5" fill="#E2E8F0"/><rect x="280" y="447" width="381.5" height="18" rx="5" fill="#F97316"/><text x="1100" y="462" class="value">47.1%</text><text x="45" y="504" class="label">Pencatatan melalui chat AI</text><rect x="280" y="489" width="810" height="18" rx="5" fill="#E2E8F0"/><rect x="280" y="489" width="381.5" height="18" rx="5" fill="#F97316"/><text x="1100" y="504" class="value">47.1%</text><text x="45" y="546" class="label">AI Financial Coach</text><rect x="280" y="531" width="810" height="18" rx="5" fill="#E2E8F0"/><rect x="280" y="531" width="333.7" height="18" rx="5" fill="#F97316"/><text x="1100" y="546" class="value">41.2%</text><text x="45" y="588" class="label">Laporan keuangan bulanan</text><rect x="280" y="573" width="810" height="18" rx="5" fill="#E2E8F0"/><rect x="280" y="573" width="317.5" height="18" rx="5" fill="#F97316"/><text x="1100" y="588" class="value">39.2%</text>
<text x="45" y="625" class="label">n=51 mahasiswa aktif • fitur merupakan pertanyaan multi-pilihan</text>
</svg>